<svg xmlns="http://www.w3.org/2000/svg" xmlns:xlink="http://www.w3.org/1999/xlink" width="500" zoomAndPan="magnify" viewBox="0 0 375 374.999991" height="500" preserveAspectRatio="xMidYMid meet" version="1.0"><defs><g/><clipPath id="d36958d2b8"><path d="M 108.792969 215.246094 L 141.042969 215.246094 L 141.042969 247.496094 L 108.792969 247.496094 Z M 108.792969 215.246094 " clip-rule="nonzero"/></clipPath><clipPath id="730e8e0fa0"><path d="M 90.023438 194.558594 L 285 194.558594 L 285 288.308594 L 90.023438 288.308594 Z M 90.023438 194.558594 " clip-rule="nonzero"/></clipPath><clipPath id="b3959c8c2a"><path d="M 127.335938 86.621094 L 247.335938 86.621094 L 247.335938 248.621094 L 127.335938 248.621094 Z M 127.335938 86.621094 " clip-rule="nonzero"/></clipPath><clipPath id="8b4418129f"><path d="M 108.792969 215.246094 L 141.042969 215.246094 L 141.042969 247.496094 L 108.792969 247.496094 Z M 108.792969 215.246094 " clip-rule="nonzero"/></clipPath></defs><g clip-path="url(#d36958d2b8)"><path fill="#000000" d="M 140.703125 230.972656 L 134.40625 230.398438 C 134.210938 228.320312 133.414062 226.507812 132.011719 224.964844 L 133.410156 223.292969 C 133.5 223.15625 133.484375 223.027344 133.367188 222.910156 C 133.253906 222.792969 133.125 222.78125 132.988281 222.871094 L 131.316406 224.265625 C 129.769531 222.871094 127.957031 222.085938 125.882812 221.902344 L 125.320312 215.585938 C 125.28125 215.359375 125.148438 215.246094 124.917969 215.246094 C 124.691406 215.246094 124.554688 215.359375 124.519531 215.585938 L 123.9375 221.929688 C 121.910156 222.171875 120.148438 222.992188 118.65625 224.390625 L 116.835938 222.871094 C 116.695312 222.78125 116.570312 222.792969 116.453125 222.910156 C 116.335938 223.027344 116.320312 223.15625 116.410156 223.292969 L 117.941406 225.128906 C 116.640625 226.640625 115.898438 228.390625 115.714844 230.375 L 109.132812 230.972656 C 108.90625 231.007812 108.792969 231.140625 108.792969 231.371094 C 108.792969 231.601562 108.90625 231.734375 109.132812 231.773438 L 115.71875 232.375 C 115.949219 234.335938 116.722656 236.050781 118.042969 237.519531 L 116.410156 239.472656 C 116.320312 239.613281 116.335938 239.738281 116.453125 239.855469 C 116.570312 239.972656 116.695312 239.984375 116.835938 239.898438 L 118.816406 238.253906 C 120.28125 239.570312 121.988281 240.351562 123.945312 240.59375 L 124.546875 247.15625 C 124.582031 247.382812 124.71875 247.496094 124.945312 247.496094 C 125.175781 247.496094 125.308594 247.382812 125.347656 247.15625 L 125.945312 240.621094 C 127.941406 240.445312 129.699219 239.703125 131.222656 238.394531 L 133.03125 239.902344 C 133.171875 239.992188 133.296875 239.976562 133.414062 239.859375 C 133.53125 239.746094 133.542969 239.617188 133.453125 239.480469 L 131.957031 237.6875 C 133.359375 236.175781 134.175781 234.394531 134.40625 232.347656 L 140.714844 231.789062 C 140.828125 231.789062 140.925781 231.746094 141.003906 231.664062 C 141.082031 231.585938 141.121094 231.488281 141.117188 231.375 C 141.117188 231.261719 141.078125 231.164062 140.996094 231.085938 C 140.914062 231.007812 140.816406 230.96875 140.703125 230.972656 Z M 133.851562 230.347656 L 128.203125 229.828125 C 128.136719 229.816406 128.070312 229.800781 128.003906 229.78125 L 131.65625 225.398438 C 132.921875 226.808594 133.65625 228.460938 133.851562 230.347656 Z M 130.894531 224.625 L 126.511719 228.277344 C 126.511719 228.210938 126.472656 228.148438 126.460938 228.082031 L 125.949219 222.453125 C 127.832031 222.644531 129.480469 223.367188 130.894531 224.625 Z M 123.890625 222.484375 L 123.375 228.054688 C 123.363281 228.121094 123.347656 228.183594 123.328125 228.25 L 119.089844 224.710938 C 120.457031 223.46875 122.054688 222.726562 123.890625 222.484375 Z M 118.320312 225.546875 L 121.824219 229.78125 C 121.757812 229.800781 121.695312 229.816406 121.628906 229.828125 L 116.253906 230.320312 C 116.449219 228.523438 117.128906 226.933594 118.296875 225.554688 Z M 116.316406 232.417969 L 121.652344 232.910156 C 121.71875 232.910156 121.777344 232.941406 121.84375 232.957031 L 118.398438 237.074219 C 117.226562 235.738281 116.527344 234.1875 116.292969 232.425781 Z M 119.238281 237.886719 L 123.347656 234.460938 C 123.371094 234.527344 123.386719 234.59375 123.398438 234.664062 L 123.890625 240.011719 C 122.117188 239.78125 120.558594 239.074219 119.21875 237.890625 Z M 125.988281 240.058594 L 126.484375 234.664062 C 126.484375 234.597656 126.515625 234.527344 126.535156 234.460938 L 130.789062 238.007812 C 129.394531 239.191406 127.785156 239.878906 125.964844 240.0625 Z M 131.59375 237.222656 L 128.035156 232.957031 C 128.105469 232.957031 128.171875 232.917969 128.238281 232.910156 L 133.851562 232.402344 C 133.601562 234.25 132.839844 235.859375 131.574219 237.230469 Z M 131.59375 237.222656 " fill-opacity="1" fill-rule="nonzero"/></g><g clip-path="url(#730e8e0fa0)"><path fill="#ffffff" d="M 105.628906 288.308594 C 105.074219 288.308594 104.519531 288.277344 103.964844 288.21875 C 103.414062 288.160156 102.863281 288.070312 102.320312 287.949219 C 101.777344 287.832031 101.242188 287.683594 100.714844 287.503906 C 100.1875 287.328125 99.671875 287.125 99.167969 286.890625 C 98.660156 286.65625 98.167969 286.398438 97.691406 286.113281 C 97.214844 285.828125 96.753906 285.515625 96.3125 285.179688 C 95.867188 284.84375 95.445312 284.484375 95.039062 284.105469 C 94.632812 283.722656 94.25 283.320312 93.890625 282.898438 C 93.527344 282.476562 93.191406 282.035156 92.878906 281.574219 C 92.566406 281.117188 92.277344 280.640625 92.015625 280.152344 C 91.753906 279.660156 91.519531 279.15625 91.308594 278.640625 C 91.101562 278.125 90.921875 277.601562 90.773438 277.066406 C 90.621094 276.53125 90.5 275.988281 90.40625 275.441406 C 90.316406 274.894531 90.253906 274.34375 90.21875 273.785156 C 90.1875 273.230469 90.183594 272.675781 90.210938 272.121094 C 90.238281 271.566406 90.296875 271.015625 90.382812 270.464844 L 100.390625 207.5625 C 100.535156 206.664062 100.757812 205.785156 101.054688 204.921875 C 101.355469 204.0625 101.726562 203.234375 102.171875 202.441406 C 102.617188 201.648438 103.128906 200.898438 103.707031 200.195312 C 104.285156 199.492188 104.921875 198.84375 105.617188 198.253906 C 106.308594 197.660156 107.046875 197.136719 107.835938 196.675781 C 108.621094 196.214844 109.441406 195.828125 110.296875 195.511719 C 111.152344 195.199219 112.027344 194.960938 112.925781 194.800781 C 113.824219 194.640625 114.726562 194.558594 115.636719 194.558594 L 259.421875 194.558594 C 260.332031 194.554688 261.238281 194.632812 262.136719 194.789062 C 263.035156 194.949219 263.914062 195.183594 264.769531 195.496094 C 265.625 195.8125 266.449219 196.199219 267.238281 196.65625 C 268.023438 197.117188 268.765625 197.644531 269.457031 198.234375 C 270.152344 198.828125 270.789062 199.476562 271.367188 200.179688 C 271.945312 200.886719 272.457031 201.636719 272.902344 202.433594 C 273.34375 203.226562 273.714844 204.054688 274.011719 204.917969 C 274.308594 205.78125 274.527344 206.660156 274.667969 207.5625 L 284.675781 270.464844 C 284.761719 271.015625 284.820312 271.566406 284.847656 272.121094 C 284.875 272.675781 284.871094 273.230469 284.839844 273.785156 C 284.804688 274.34375 284.746094 274.894531 284.652344 275.441406 C 284.558594 275.988281 284.4375 276.53125 284.289062 277.066406 C 284.136719 277.601562 283.957031 278.125 283.75 278.640625 C 283.542969 279.15625 283.308594 279.660156 283.042969 280.152344 C 282.78125 280.640625 282.496094 281.117188 282.179688 281.574219 C 281.867188 282.035156 281.53125 282.476562 281.167969 282.898438 C 280.808594 283.320312 280.425781 283.722656 280.019531 284.105469 C 279.617188 284.484375 279.191406 284.84375 278.746094 285.179688 C 278.304688 285.515625 277.84375 285.828125 277.367188 286.113281 C 276.890625 286.398438 276.398438 286.65625 275.894531 286.890625 C 275.386719 287.125 274.871094 287.328125 274.34375 287.503906 C 273.816406 287.683594 273.28125 287.832031 272.738281 287.949219 C 272.195312 288.070312 271.644531 288.160156 271.09375 288.21875 C 270.539062 288.277344 269.984375 288.308594 269.429688 288.308594 Z M 105.628906 288.308594 " fill-opacity="1" fill-rule="nonzero"/></g><path fill="#ffffff" d="M 269.421875 283.792969 L 105.628906 283.792969 C 105.238281 283.792969 104.84375 283.773438 104.453125 283.730469 C 104.0625 283.6875 103.675781 283.625 103.292969 283.539062 C 102.90625 283.457031 102.53125 283.351562 102.15625 283.226562 C 101.785156 283.101562 101.417969 282.957031 101.0625 282.792969 C 100.703125 282.628906 100.359375 282.445312 100.019531 282.242188 C 99.683594 282.042969 99.359375 281.820312 99.042969 281.585938 C 98.730469 281.347656 98.429688 281.09375 98.144531 280.824219 C 97.859375 280.554688 97.585938 280.273438 97.332031 279.972656 C 97.078125 279.675781 96.839844 279.363281 96.617188 279.039062 C 96.394531 278.714844 96.191406 278.378906 96.003906 278.03125 C 95.820312 277.6875 95.652344 277.332031 95.507812 276.96875 C 95.359375 276.601562 95.230469 276.230469 95.125 275.855469 C 95.019531 275.476562 94.933594 275.09375 94.867188 274.707031 C 94.800781 274.320312 94.757812 273.929688 94.734375 273.535156 C 94.710938 273.144531 94.707031 272.753906 94.726562 272.359375 C 94.746094 271.96875 94.785156 271.578125 94.847656 271.1875 L 104.855469 208.269531 C 104.957031 207.632812 105.109375 207.011719 105.324219 206.402344 C 105.535156 205.796875 105.796875 205.210938 106.113281 204.648438 C 106.425781 204.085938 106.789062 203.554688 107.199219 203.058594 C 107.609375 202.5625 108.058594 202.101562 108.546875 201.683594 C 109.039062 201.265625 109.5625 200.894531 110.117188 200.570312 C 110.675781 200.242188 111.253906 199.96875 111.859375 199.746094 C 112.464844 199.523438 113.085938 199.355469 113.71875 199.242188 C 114.351562 199.128906 114.992188 199.070312 115.636719 199.070312 L 259.421875 199.070312 C 260.066406 199.074219 260.703125 199.128906 261.339844 199.242188 C 261.972656 199.355469 262.59375 199.527344 263.195312 199.75 C 263.800781 199.972656 264.382812 200.246094 264.9375 200.570312 C 265.492188 200.898438 266.015625 201.269531 266.503906 201.6875 C 266.996094 202.105469 267.445312 202.5625 267.851562 203.0625 C 268.261719 203.558594 268.625 204.089844 268.9375 204.652344 C 269.253906 205.210938 269.515625 205.796875 269.726562 206.40625 C 269.9375 207.011719 270.09375 207.636719 270.195312 208.269531 L 280.203125 271.1875 C 280.265625 271.578125 280.304688 271.96875 280.324219 272.359375 C 280.34375 272.753906 280.34375 273.144531 280.320312 273.539062 C 280.296875 273.929688 280.253906 274.320312 280.1875 274.710938 C 280.121094 275.097656 280.035156 275.480469 279.929688 275.859375 C 279.824219 276.238281 279.695312 276.609375 279.550781 276.972656 C 279.402344 277.335938 279.238281 277.695312 279.050781 278.039062 C 278.867188 278.386719 278.664062 278.722656 278.441406 279.046875 C 278.21875 279.371094 277.980469 279.683594 277.726562 279.984375 C 277.46875 280.28125 277.199219 280.566406 276.910156 280.835938 C 276.625 281.105469 276.324219 281.359375 276.011719 281.597656 C 275.699219 281.835938 275.371094 282.054688 275.035156 282.257812 C 274.699219 282.457031 274.351562 282.640625 273.992188 282.808594 C 273.636719 282.972656 273.269531 283.117188 272.898438 283.242188 C 272.523438 283.367188 272.144531 283.472656 271.761719 283.554688 C 271.375 283.640625 270.988281 283.703125 270.597656 283.746094 C 270.207031 283.789062 269.8125 283.808594 269.421875 283.808594 Z M 269.421875 283.792969 " fill-opacity="1" fill-rule="nonzero"/><path fill="#000000" d="M 269.421875 284.402344 L 105.628906 284.402344 C 105.214844 284.402344 104.800781 284.378906 104.386719 284.335938 C 103.972656 284.289062 103.566406 284.222656 103.160156 284.132812 C 102.753906 284.046875 102.351562 283.933594 101.957031 283.804688 C 101.566406 283.671875 101.179688 283.519531 100.800781 283.34375 C 100.425781 283.171875 100.058594 282.976562 99.699219 282.761719 C 99.34375 282.550781 99 282.316406 98.667969 282.066406 C 98.339844 281.816406 98.019531 281.550781 97.71875 281.265625 C 97.417969 280.980469 97.128906 280.679688 96.859375 280.363281 C 96.589844 280.046875 96.339844 279.71875 96.105469 279.375 C 95.871094 279.03125 95.65625 278.675781 95.460938 278.3125 C 95.265625 277.945312 95.089844 277.570312 94.933594 277.183594 C 94.777344 276.800781 94.644531 276.40625 94.53125 276.007812 C 94.417969 275.605469 94.328125 275.203125 94.261719 274.792969 C 94.191406 274.382812 94.144531 273.972656 94.121094 273.558594 C 94.097656 273.144531 94.09375 272.726562 94.113281 272.3125 C 94.136719 271.898438 94.179688 271.488281 94.242188 271.078125 L 104.25 208.171875 C 104.359375 207.5 104.523438 206.84375 104.746094 206.203125 C 104.96875 205.558594 105.25 204.941406 105.582031 204.347656 C 105.914062 203.757812 106.296875 203.195312 106.726562 202.671875 C 107.160156 202.144531 107.636719 201.664062 108.152344 201.222656 C 108.671875 200.78125 109.222656 200.386719 109.808594 200.042969 C 110.398438 199.699219 111.011719 199.410156 111.648438 199.175781 C 112.289062 198.941406 112.941406 198.761719 113.613281 198.644531 C 114.28125 198.523438 114.957031 198.464844 115.636719 198.464844 L 259.421875 198.464844 C 260.101562 198.460938 260.777344 198.519531 261.449219 198.636719 C 262.121094 198.753906 262.777344 198.929688 263.414062 199.164062 C 264.054688 199.398438 264.667969 199.6875 265.257812 200.03125 C 265.847656 200.375 266.398438 200.765625 266.917969 201.207031 C 267.433594 201.652344 267.910156 202.136719 268.34375 202.660156 C 268.773438 203.1875 269.15625 203.746094 269.488281 204.34375 C 269.820312 204.9375 270.097656 205.554688 270.320312 206.199219 C 270.539062 206.84375 270.703125 207.5 270.808594 208.171875 L 280.8125 271.078125 C 280.878906 271.488281 280.921875 271.898438 280.941406 272.3125 C 280.960938 272.726562 280.960938 273.144531 280.9375 273.558594 C 280.914062 273.972656 280.867188 274.382812 280.796875 274.792969 C 280.730469 275.203125 280.636719 275.605469 280.527344 276.007812 C 280.414062 276.40625 280.28125 276.796875 280.125 277.183594 C 279.96875 277.570312 279.792969 277.945312 279.597656 278.3125 C 279.402344 278.675781 279.1875 279.03125 278.953125 279.375 C 278.71875 279.71875 278.46875 280.046875 278.199219 280.363281 C 277.929688 280.679688 277.640625 280.980469 277.339844 281.265625 C 277.039062 281.550781 276.71875 281.816406 276.390625 282.066406 C 276.058594 282.316406 275.714844 282.550781 275.359375 282.761719 C 275 282.976562 274.632812 283.171875 274.257812 283.34375 C 273.878906 283.519531 273.496094 283.671875 273.101562 283.804688 C 272.707031 283.933594 272.304688 284.046875 271.902344 284.136719 C 271.496094 284.222656 271.085938 284.289062 270.671875 284.335938 C 270.257812 284.378906 269.84375 284.402344 269.429688 284.402344 Z M 115.636719 199.679688 C 115.027344 199.679688 114.425781 199.734375 113.824219 199.839844 C 113.226562 199.949219 112.640625 200.105469 112.070312 200.316406 C 111.5 200.527344 110.953125 200.785156 110.425781 201.09375 C 109.902344 201.402344 109.40625 201.753906 108.945312 202.148438 C 108.480469 202.542969 108.054688 202.972656 107.667969 203.445312 C 107.285156 203.914062 106.941406 204.414062 106.644531 204.945312 C 106.34375 205.476562 106.097656 206.027344 105.898438 206.601562 C 105.695312 207.175781 105.550781 207.765625 105.453125 208.363281 L 95.449219 271.269531 C 95.390625 271.636719 95.351562 272.003906 95.332031 272.375 C 95.316406 272.746094 95.316406 273.117188 95.339844 273.488281 C 95.359375 273.855469 95.402344 274.226562 95.464844 274.589844 C 95.523438 274.957031 95.605469 275.320312 95.707031 275.675781 C 95.808594 276.035156 95.925781 276.386719 96.066406 276.730469 C 96.203125 277.074219 96.363281 277.410156 96.535156 277.738281 C 96.710938 278.066406 96.902344 278.382812 97.113281 278.6875 C 97.324219 278.996094 97.546875 279.289062 97.789062 279.574219 C 98.03125 279.855469 98.285156 280.125 98.554688 280.378906 C 98.828125 280.632812 99.109375 280.871094 99.40625 281.097656 C 99.703125 281.320312 100.011719 281.527344 100.328125 281.71875 C 100.648438 281.910156 100.976562 282.082031 101.3125 282.238281 C 101.648438 282.394531 101.996094 282.53125 102.347656 282.648438 C 102.699219 282.769531 103.058594 282.867188 103.421875 282.945312 C 103.78125 283.027344 104.148438 283.085938 104.519531 283.125 C 104.886719 283.164062 105.257812 283.1875 105.628906 283.1875 L 269.421875 283.1875 C 269.792969 283.1875 270.164062 283.164062 270.53125 283.125 C 270.902344 283.085938 271.265625 283.027344 271.628906 282.945312 C 271.992188 282.867188 272.351562 282.769531 272.703125 282.648438 C 273.054688 282.53125 273.402344 282.394531 273.738281 282.238281 C 274.074219 282.085938 274.402344 281.910156 274.722656 281.71875 C 275.042969 281.53125 275.347656 281.320312 275.644531 281.097656 C 275.941406 280.875 276.226562 280.632812 276.496094 280.378906 C 276.765625 280.125 277.019531 279.855469 277.261719 279.574219 C 277.503906 279.292969 277.730469 278.996094 277.9375 278.691406 C 278.148438 278.382812 278.339844 278.066406 278.515625 277.738281 C 278.691406 277.410156 278.847656 277.074219 278.984375 276.730469 C 279.125 276.386719 279.242188 276.035156 279.34375 275.675781 C 279.445312 275.320312 279.527344 274.957031 279.585938 274.59375 C 279.648438 274.226562 279.691406 273.859375 279.710938 273.488281 C 279.734375 273.117188 279.734375 272.746094 279.714844 272.375 C 279.699219 272.003906 279.660156 271.636719 279.601562 271.269531 L 269.59375 208.363281 C 269.5 207.765625 269.355469 207.175781 269.15625 206.601562 C 268.960938 206.023438 268.710938 205.472656 268.414062 204.941406 C 268.121094 204.410156 267.777344 203.90625 267.390625 203.4375 C 267.007812 202.964844 266.582031 202.535156 266.121094 202.136719 C 265.65625 201.742188 265.164062 201.390625 264.636719 201.085938 C 264.109375 200.777344 263.5625 200.519531 262.992188 200.308594 C 262.417969 200.097656 261.835938 199.941406 261.234375 199.835938 C 260.632812 199.730469 260.03125 199.679688 259.421875 199.679688 Z M 115.636719 199.679688 " fill-opacity="1" fill-rule="nonzero"/><g clip-path="url(#b3959c8c2a)"><path fill="#ffffff" d="M 243.144531 165.144531 L 232.933594 152.96875 L 232.933594 145.761719 L 221.710938 131.789062 L 217.273438 119.167969 L 209.585938 108.347656 L 201.703125 102.039062 L 187.335938 86.714844 L 172.96875 102.039062 L 165.085938 108.347656 L 157.402344 119.167969 L 152.964844 131.789062 L 141.742188 145.761719 L 141.742188 152.96875 L 131.53125 165.144531 L 127.335938 188.582031 L 160.277344 216.527344 L 164.636719 229.601562 L 187.335938 248.527344 L 210.039062 229.601562 L 214.398438 216.527344 L 247.335938 188.582031 Z M 243.144531 165.144531 " fill-opacity="1" fill-rule="nonzero"/></g><path fill="#000000" d="M 187.339844 91.261719 L 175.933594 103.574219 L 181.632812 102.578125 L 169.5 108.832031 L 160.898438 120.449219 L 157.632812 130.582031 L 155.984375 133.554688 L 155.984375 141.453125 L 153.464844 135.933594 L 145.476562 146.660156 L 145.476562 152.027344 L 144.28125 163.144531 L 142.304688 157.183594 L 134.609375 166.121094 L 130.4375 186.777344 L 153.925781 170.9375 L 158.875 158.90625 L 168.351562 146.808594 L 177.511719 139.019531 L 187.339844 129.835938 L 196.207031 139.019531 L 187.339844 126.410156 L 185.609375 126.109375 L 181.652344 127.996094 C 181.652344 127.996094 184.089844 123.128906 187.324219 121.925781 L 187.324219 112.507812 C 187.324219 112.507812 188.867188 111.515625 189.859375 111.402344 C 190.722656 111.425781 191.546875 111.625 192.332031 112 C 191.683594 111.328125 190.914062 110.84375 190.03125 110.546875 C 189.148438 110.25 188.246094 110.167969 187.324219 110.3125 C 187.324219 110.3125 183.628906 110.90625 181.75 112.296875 C 180.890625 112.980469 179.972656 113.574219 179 114.085938 C 179 114.085938 182.847656 107.734375 186.917969 106.839844 L 187.34375 93.257812 L 192.800781 95.792969 Z M 187.339844 91.261719 " fill-opacity="1" fill-rule="nonzero"/><path fill="#000000" d="M 209.261719 111.664062 L 215.34375 120.597656 L 218.015625 130.574219 L 213.640625 122.085938 L 211.1875 117.921875 Z M 209.261719 111.664062 " fill-opacity="1" fill-rule="nonzero"/><path fill="#000000" d="M 230.179688 146.511719 L 230.179688 153.515625 L 240.121094 166.320312 L 245.160156 186.769531 L 229.289062 171.085938 L 227.359375 163.640625 L 235.074219 169.449219 L 225.28125 156.9375 L 226.023438 151.726562 L 220.984375 143.234375 L 227.0625 147.554688 L 222.460938 136.683594 Z M 230.179688 146.511719 " fill-opacity="1" fill-rule="nonzero"/><path fill="#000000" d="M 175.382812 167.929688 L 179.230469 164.910156 C 179.488281 164.710938 179.691406 164.464844 179.839844 164.175781 C 179.988281 163.886719 180.074219 163.578125 180.09375 163.253906 C 180.113281 162.925781 180.066406 162.613281 179.949219 162.308594 C 179.835938 162.003906 179.664062 161.734375 179.433594 161.503906 C 179.203125 161.273438 178.9375 161.097656 178.632812 160.984375 C 178.328125 160.867188 178.015625 160.816406 177.691406 160.835938 C 177.367188 160.855469 177.0625 160.941406 176.773438 161.089844 C 176.484375 161.242188 176.238281 161.445312 176.039062 161.699219 L 173.289062 165.230469 L 170.539062 161.699219 C 170.339844 161.445312 170.09375 161.246094 169.804688 161.097656 C 169.519531 160.949219 169.210938 160.867188 168.890625 160.847656 C 168.566406 160.832031 168.253906 160.878906 167.953125 160.996094 C 167.648438 161.113281 167.386719 161.285156 167.15625 161.515625 C 166.925781 161.742188 166.753906 162.011719 166.640625 162.3125 C 166.523438 162.617188 166.476562 162.929688 166.492188 163.253906 C 166.511719 163.578125 166.59375 163.882812 166.742188 164.171875 C 166.890625 164.460938 167.089844 164.707031 167.339844 164.910156 L 171.1875 167.929688 L 167.09375 173.183594 C 167.011719 173.285156 166.972656 173.402344 166.980469 173.53125 C 166.988281 173.660156 167.035156 173.773438 167.128906 173.863281 C 167.222656 173.957031 167.332031 174.007812 167.464844 174.011719 C 167.59375 174.019531 167.707031 173.980469 167.808594 173.894531 L 173.304688 169.585938 L 178.804688 173.894531 C 178.902344 173.972656 179.015625 174.007812 179.144531 174 C 179.269531 173.992188 179.378906 173.941406 179.46875 173.851562 C 179.558594 173.761719 179.605469 173.652344 179.617188 173.527344 C 179.625 173.398438 179.589844 173.285156 179.511719 173.183594 Z M 175.382812 167.929688 " fill-opacity="1" fill-rule="nonzero"/><path fill="#000000" d="M 203.09375 167.929688 L 206.945312 164.910156 C 207.199219 164.710938 207.402344 164.464844 207.550781 164.175781 C 207.703125 163.886719 207.785156 163.578125 207.804688 163.253906 C 207.824219 162.925781 207.777344 162.613281 207.660156 162.308594 C 207.546875 162.003906 207.375 161.734375 207.144531 161.503906 C 206.914062 161.273438 206.648438 161.097656 206.34375 160.984375 C 206.042969 160.867188 205.726562 160.816406 205.402344 160.835938 C 205.078125 160.855469 204.773438 160.941406 204.484375 161.089844 C 204.195312 161.242188 203.949219 161.445312 203.75 161.699219 L 201 165.230469 L 198.253906 161.699219 C 198.050781 161.445312 197.804688 161.242188 197.515625 161.089844 C 197.230469 160.941406 196.921875 160.855469 196.597656 160.835938 C 196.273438 160.816406 195.960938 160.867188 195.65625 160.984375 C 195.351562 161.097656 195.085938 161.273438 194.855469 161.503906 C 194.628906 161.734375 194.457031 162.003906 194.339844 162.308594 C 194.222656 162.613281 194.175781 162.925781 194.195312 163.253906 C 194.214844 163.578125 194.300781 163.886719 194.449219 164.175781 C 194.601562 164.464844 194.804688 164.710938 195.058594 164.910156 L 198.90625 167.929688 L 194.8125 173.183594 C 194.734375 173.285156 194.703125 173.394531 194.710938 173.519531 C 194.714844 173.644531 194.761719 173.753906 194.847656 173.84375 C 194.9375 173.933594 195.039062 173.984375 195.164062 173.996094 C 195.289062 174.007812 195.402344 173.976562 195.503906 173.90625 L 201 169.597656 L 206.5 173.90625 C 206.597656 173.984375 206.710938 174.019531 206.839844 174.011719 C 206.964844 174.003906 207.074219 173.953125 207.164062 173.863281 C 207.253906 173.773438 207.300781 173.664062 207.3125 173.535156 C 207.320312 173.410156 207.285156 173.296875 207.207031 173.195312 Z M 203.09375 167.929688 " fill-opacity="1" fill-rule="nonzero"/><path fill="#000000" d="M 152.878906 184.03125 C 152.878906 184.03125 158.632812 192.730469 161.003906 194.175781 C 163.371094 195.621094 169.128906 194.175781 169.128906 194.175781 L 173.164062 208.46875 C 173.203125 208.597656 173.164062 208.691406 173.042969 208.75 C 172.921875 208.808594 172.824219 208.78125 172.75 208.667969 L 165.910156 199.070312 C 165.910156 199.070312 159.820312 200.339844 156.941406 198.707031 C 154.058594 197.074219 143.066406 186.75 143.066406 186.75 L 153.390625 192.90625 L 146.617188 184.03125 L 151.695312 180.773438 Z M 152.878906 184.03125 " fill-opacity="1" fill-rule="nonzero"/><path fill="#000000" d="M 221.890625 184.03125 C 221.890625 184.03125 216.136719 192.730469 213.765625 194.175781 C 211.394531 195.621094 205.640625 194.175781 205.640625 194.175781 L 201.605469 208.46875 C 201.566406 208.597656 201.605469 208.691406 201.726562 208.75 C 201.847656 208.808594 201.945312 208.78125 202.019531 208.667969 L 208.855469 199.070312 C 208.855469 199.070312 214.949219 200.339844 217.828125 198.707031 C 220.707031 197.074219 231.703125 186.75 231.703125 186.75 L 221.378906 192.90625 L 228.152344 184.03125 L 223.074219 180.773438 Z M 221.890625 184.03125 " fill-opacity="1" fill-rule="nonzero"/><path fill="#000000" d="M 176.046875 193.074219 C 176.234375 193.097656 176.394531 193.179688 176.523438 193.316406 C 176.652344 193.453125 176.726562 193.617188 176.742188 193.804688 L 178.257812 205.5 C 178.257812 205.617188 178.097656 205.617188 178.070312 205.5 L 175.601562 193.804688 C 175.515625 193.410156 175.714844 193.074219 176.046875 193.074219 Z M 176.046875 193.074219 " fill-opacity="1" fill-rule="nonzero"/><path fill="#000000" d="M 181.695312 193.074219 C 181.878906 193.09375 182.03125 193.175781 182.152344 193.316406 C 182.273438 193.457031 182.332031 193.621094 182.328125 193.804688 L 182.84375 205.5 C 182.84375 205.617188 182.671875 205.617188 182.65625 205.5 L 181.210938 193.804688 C 181.167969 193.636719 181.195312 193.480469 181.292969 193.332031 C 181.386719 193.1875 181.523438 193.101562 181.695312 193.074219 Z M 181.695312 193.074219 " fill-opacity="1" fill-rule="nonzero"/><path fill="#000000" d="M 187.339844 193.074219 C 187.515625 193.097656 187.660156 193.183594 187.765625 193.324219 C 187.871094 193.46875 187.914062 193.628906 187.890625 193.804688 L 187.410156 205.5 C 187.398438 205.546875 187.371094 205.570312 187.320312 205.570312 C 187.273438 205.570312 187.242188 205.546875 187.230469 205.5 L 186.75 193.804688 C 186.726562 193.621094 186.773438 193.457031 186.890625 193.3125 C 187.003906 193.167969 187.15625 193.089844 187.339844 193.074219 Z M 187.339844 193.074219 " fill-opacity="1" fill-rule="nonzero"/><path fill="#000000" d="M 192.980469 193.074219 C 193.160156 193.09375 193.296875 193.175781 193.402344 193.324219 C 193.503906 193.472656 193.535156 193.632812 193.492188 193.804688 L 192.019531 205.5 C 192.019531 205.617188 191.824219 205.617188 191.832031 205.5 L 192.347656 193.804688 C 192.34375 193.621094 192.402344 193.457031 192.523438 193.316406 C 192.644531 193.175781 192.796875 193.09375 192.980469 193.074219 Z M 192.980469 193.074219 " fill-opacity="1" fill-rule="nonzero"/><path fill="#000000" d="M 198.625 193.074219 C 198.957031 193.074219 199.175781 193.410156 199.070312 193.804688 L 196.601562 205.5 C 196.601562 205.617188 196.398438 205.617188 196.417969 205.5 L 197.933594 193.804688 C 197.949219 193.617188 198.019531 193.453125 198.152344 193.316406 C 198.28125 193.179688 198.4375 193.097656 198.625 193.074219 Z M 198.625 193.074219 " fill-opacity="1" fill-rule="nonzero"/><g clip-path="url(#8b4418129f)"><path fill="#000000" d="M 140.703125 230.972656 L 134.40625 230.398438 C 134.210938 228.320312 133.414062 226.507812 132.011719 224.964844 L 133.410156 223.292969 C 133.5 223.15625 133.484375 223.027344 133.367188 222.910156 C 133.253906 222.792969 133.125 222.78125 132.988281 222.871094 L 131.316406 224.265625 C 129.769531 222.871094 127.957031 222.085938 125.882812 221.902344 L 125.320312 215.585938 C 125.28125 215.359375 125.148438 215.246094 124.917969 215.246094 C 124.691406 215.246094 124.554688 215.359375 124.519531 215.585938 L 123.9375 221.929688 C 121.910156 222.171875 120.148438 222.992188 118.65625 224.390625 L 116.835938 222.871094 C 116.695312 222.78125 116.570312 222.792969 116.453125 222.910156 C 116.335938 223.027344 116.320312 223.15625 116.410156 223.292969 L 117.941406 225.128906 C 116.640625 226.640625 115.898438 228.390625 115.714844 230.375 L 109.132812 230.972656 C 108.90625 231.007812 108.792969 231.140625 108.792969 231.371094 C 108.792969 231.601562 108.90625 231.734375 109.132812 231.773438 L 115.71875 232.375 C 115.949219 234.335938 116.722656 236.050781 118.042969 237.519531 L 116.410156 239.472656 C 116.320312 239.613281 116.335938 239.738281 116.453125 239.855469 C 116.570312 239.972656 116.695312 239.984375 116.835938 239.898438 L 118.816406 238.253906 C 120.28125 239.570312 121.988281 240.351562 123.945312 240.59375 L 124.546875 247.15625 C 124.582031 247.382812 124.71875 247.496094 124.945312 247.496094 C 125.175781 247.496094 125.308594 247.382812 125.347656 247.15625 L 125.945312 240.621094 C 127.941406 240.445312 129.699219 239.703125 131.222656 238.394531 L 133.03125 239.902344 C 133.171875 239.992188 133.296875 239.976562 133.414062 239.859375 C 133.53125 239.746094 133.542969 239.617188 133.453125 239.480469 L 131.957031 237.6875 C 133.359375 236.175781 134.175781 234.394531 134.40625 232.347656 L 140.714844 231.789062 C 140.828125 231.789062 140.925781 231.746094 141.003906 231.664062 C 141.082031 231.585938 141.121094 231.488281 141.117188 231.375 C 141.117188 231.261719 141.078125 231.164062 140.996094 231.085938 C 140.914062 231.007812 140.816406 230.96875 140.703125 230.972656 Z M 133.851562 230.347656 L 128.203125 229.828125 C 128.136719 229.816406 128.070312 229.800781 128.003906 229.78125 L 131.65625 225.398438 C 132.921875 226.808594 133.65625 228.460938 133.851562 230.347656 Z M 130.894531 224.625 L 126.511719 228.277344 C 126.511719 228.210938 126.472656 228.148438 126.460938 228.082031 L 125.949219 222.453125 C 127.832031 222.644531 129.480469 223.367188 130.894531 224.625 Z M 123.890625 222.484375 L 123.375 228.054688 C 123.363281 228.121094 123.347656 228.183594 123.328125 228.25 L 119.089844 224.710938 C 120.457031 223.46875 122.054688 222.726562 123.890625 222.484375 Z M 118.320312 225.546875 L 121.824219 229.78125 C 121.757812 229.800781 121.695312 229.816406 121.628906 229.828125 L 116.253906 230.320312 C 116.449219 228.523438 117.128906 226.933594 118.296875 225.554688 Z M 116.316406 232.417969 L 121.652344 232.910156 C 121.71875 232.910156 121.777344 232.941406 121.84375 232.957031 L 118.398438 237.074219 C 117.226562 235.738281 116.527344 234.1875 116.292969 232.425781 Z M 119.238281 237.886719 L 123.347656 234.460938 C 123.371094 234.527344 123.386719 234.59375 123.398438 234.664062 L 123.890625 240.011719 C 122.117188 239.78125 120.558594 239.074219 119.21875 237.890625 Z M 125.988281 240.058594 L 126.484375 234.664062 C 126.484375 234.597656 126.515625 234.527344 126.535156 234.460938 L 130.789062 238.007812 C 129.394531 239.191406 127.785156 239.878906 125.964844 240.0625 Z M 131.59375 237.222656 L 128.035156 232.957031 C 128.105469 232.957031 128.171875 232.917969 128.238281 232.910156 L 133.851562 232.402344 C 133.601562 234.25 132.839844 235.859375 131.574219 237.230469 Z M 131.59375 237.222656 " fill-opacity="1" fill-rule="nonzero"/></g><g fill="#000000" fill-opacity="1"><g transform="translate(141.529418, 247.716135)"><g><path d="M 13.5 -20.921875 C 13.5 -19.261719 12.472656 -18.164062 10.519531 -18.164062 L 8.25 -18.164062 L 8.25 -27.855469 L 10.691406 -27.855469 C 12.375 -27.855469 13.5 -26.730469 13.5 -24.972656 Z M 18.917969 -0.0234375 C 19.578125 -0.0234375 19.796875 -0.609375 19.796875 -1.050781 L 19.796875 -5.445312 C 19.796875 -10.324219 18.722656 -13.402344 16.527344 -15.257812 C 18.503906 -16.574219 20.015625 -18.578125 20.015625 -21.480469 L 20.015625 -24.972656 C 20.015625 -29.832031 16.234375 -33.785156 11.203125 -33.785156 L 2.585938 -33.785156 C 2.074219 -33.785156 1.757812 -33.417969 1.757812 -32.832031 L 1.757812 -0.902344 C 1.757812 -0.339844 2 0 2.5625 0 L 7.445312 0 C 7.984375 0 8.25 -0.339844 8.25 -0.902344 L 8.25 -13.132812 C 11.59375 -12.914062 13.304688 -10.9375 13.304688 -6.226562 L 13.304688 -1.121094 C 13.304688 -0.390625 13.867188 -0.0234375 14.425781 -0.0234375 Z M 18.917969 -0.0234375 "/></g></g></g><g fill="#000000" fill-opacity="1"><g transform="translate(162.863973, 247.716135)"><g><path d="M 8.25 -5.882812 L 8.25 -14.160156 L 15.378906 -14.160156 C 15.84375 -14.160156 16.160156 -14.402344 16.160156 -14.988281 L 16.160156 -19.164062 C 16.160156 -19.773438 15.792969 -20.015625 15.378906 -20.015625 L 8.25 -20.015625 L 8.25 -27.855469 L 17.1875 -27.855469 C 17.625 -27.855469 17.871094 -28.148438 17.871094 -28.734375 L 17.871094 -32.882812 C 17.871094 -33.492188 17.625 -33.785156 17.1875 -33.785156 L 2.585938 -33.785156 C 2.074219 -33.785156 1.757812 -33.417969 1.757812 -32.832031 L 1.757812 -0.925781 C 1.757812 -0.339844 2.027344 0 2.585938 0 L 17.308594 0 C 17.699219 0 18.015625 -0.269531 18.015625 -0.855469 L 18.015625 -5.054688 C 18.015625 -5.613281 17.699219 -5.882812 17.308594 -5.882812 Z M 8.25 -5.882812 "/></g></g></g><g fill="#000000" fill-opacity="1"><g transform="translate(181.440171, 247.716135)"><g><path d="M 8.054688 -25.484375 C 8.054688 -27.023438 9.007812 -28.414062 10.667969 -28.414062 C 12.304688 -28.414062 13.253906 -27.023438 13.253906 -25.484375 L 13.253906 -13.742188 L 8.054688 -13.742188 Z M 19.773438 -25.851562 C 19.773438 -30.539062 15.527344 -34.324219 10.644531 -34.324219 C 5.761719 -34.324219 1.539062 -30.539062 1.539062 -25.851562 L 1.539062 -0.953125 C 1.539062 -0.4375 1.804688 0 2.171875 0 L 7.324219 0 C 7.910156 0 8.054688 -0.414062 8.054688 -0.953125 L 8.054688 -8.054688 L 13.253906 -8.054688 L 13.253906 -0.976562 C 13.253906 -0.464844 13.546875 0 14.035156 0 L 18.992188 0 C 19.554688 0 19.773438 -0.488281 19.773438 -0.976562 Z M 19.773438 -25.851562 "/></g></g></g><g fill="#000000" fill-opacity="1"><g transform="translate(202.750315, 247.716135)"><g><path d="M 13.5 -17.160156 C 13.5 -15.5 12.402344 -14.257812 10.714844 -14.257812 L 8.25 -14.257812 L 8.25 -27.855469 L 10.691406 -27.855469 C 12.375 -27.855469 13.5 -26.65625 13.5 -24.898438 Z M 1.757812 -0.925781 C 1.757812 -0.339844 2.027344 0 2.585938 0 L 7.445312 0 C 8.007812 0 8.25 -0.339844 8.25 -0.925781 L 8.25 -8.375 L 11.203125 -8.375 C 16.234375 -8.375 20.015625 -12.304688 20.015625 -17.210938 L 20.015625 -25.023438 C 20.015625 -29.929688 16.234375 -33.785156 11.203125 -33.785156 L 2.585938 -33.785156 C 2.074219 -33.785156 1.757812 -33.417969 1.757812 -32.832031 Z M 1.757812 -0.925781 "/></g></g></g><g fill="#000000" fill-opacity="1"><g transform="translate(223.328153, 247.716135)"><g><path d="M 8.25 -5.882812 L 8.25 -14.160156 L 15.378906 -14.160156 C 15.84375 -14.160156 16.160156 -14.402344 16.160156 -14.988281 L 16.160156 -19.164062 C 16.160156 -19.773438 15.792969 -20.015625 15.378906 -20.015625 L 8.25 -20.015625 L 8.25 -27.855469 L 17.1875 -27.855469 C 17.625 -27.855469 17.871094 -28.148438 17.871094 -28.734375 L 17.871094 -32.882812 C 17.871094 -33.492188 17.625 -33.785156 17.1875 -33.785156 L 2.585938 -33.785156 C 2.074219 -33.785156 1.757812 -33.417969 1.757812 -32.832031 L 1.757812 -0.925781 C 1.757812 -0.339844 2.027344 0 2.585938 0 L 17.308594 0 C 17.699219 0 18.015625 -0.269531 18.015625 -0.855469 L 18.015625 -5.054688 C 18.015625 -5.613281 17.699219 -5.882812 17.308594 -5.882812 Z M 8.25 -5.882812 "/></g></g></g><g fill="#000000" fill-opacity="1"><g transform="translate(241.904351, 247.716135)"><g><path d="M 13.5 -20.921875 C 13.5 -19.261719 12.472656 -18.164062 10.519531 -18.164062 L 8.25 -18.164062 L 8.25 -27.855469 L 10.691406 -27.855469 C 12.375 -27.855469 13.5 -26.730469 13.5 -24.972656 Z M 18.917969 -0.0234375 C 19.578125 -0.0234375 19.796875 -0.609375 19.796875 -1.050781 L 19.796875 -5.445312 C 19.796875 -10.324219 18.722656 -13.402344 16.527344 -15.257812 C 18.503906 -16.574219 20.015625 -18.578125 20.015625 -21.480469 L 20.015625 -24.972656 C 20.015625 -29.832031 16.234375 -33.785156 11.203125 -33.785156 L 2.585938 -33.785156 C 2.074219 -33.785156 1.757812 -33.417969 1.757812 -32.832031 L 1.757812 -0.902344 C 1.757812 -0.339844 2 0 2.5625 0 L 7.445312 0 C 7.984375 0 8.25 -0.339844 8.25 -0.902344 L 8.25 -13.132812 C 11.59375 -12.914062 13.304688 -10.9375 13.304688 -6.226562 L 13.304688 -1.121094 C 13.304688 -0.390625 13.867188 -0.0234375 14.425781 -0.0234375 Z M 18.917969 -0.0234375 "/></g></g></g><g fill="#000000" fill-opacity="1"><g transform="translate(107.463928, 270.9826)"><g><path d="M 6.503906 -4.066406 C 6.503906 -3.296875 5.933594 -2.671875 5.152344 -2.671875 C 4.429688 -2.671875 3.855469 -3.257812 3.855469 -4.125 L 3.855469 -12.804688 C 3.855469 -13.585938 4.359375 -14.21875 5.136719 -14.21875 C 5.96875 -14.21875 6.445312 -13.5 6.445312 -12.765625 L 6.445312 -11.691406 C 6.445312 -11.363281 6.519531 -11.230469 6.796875 -11.230469 L 9.105469 -11.230469 C 9.386719 -11.230469 9.484375 -11.375 9.484375 -11.742188 L 9.484375 -12.851562 C 9.484375 -14.402344 8.59375 -17.148438 5.164062 -17.148438 C 2.710938 -17.148438 0.609375 -15.5625 0.609375 -12.914062 L 0.609375 -3.96875 C 0.609375 -1.269531 2.746094 0.269531 5.152344 0.269531 C 7.605469 0.269531 9.558594 -1.316406 9.558594 -3.96875 L 9.558594 -8.667969 C 9.558594 -8.960938 9.410156 -9.128906 9.117188 -9.128906 L 5.601562 -9.128906 C 5.359375 -9.128906 5.234375 -8.984375 5.234375 -8.703125 L 5.234375 -6.847656 C 5.234375 -6.554688 5.359375 -6.433594 5.601562 -6.433594 L 6.503906 -6.433594 Z M 6.503906 -4.066406 "/></g></g></g><g fill="#000000" fill-opacity="1"><g transform="translate(121.15703, 270.9826)"><g><path d="M 4.027344 -12.742188 C 4.027344 -13.511719 4.503906 -14.207031 5.332031 -14.207031 C 6.152344 -14.207031 6.628906 -13.511719 6.628906 -12.742188 L 6.628906 -6.871094 L 4.027344 -6.871094 Z M 9.886719 -12.925781 C 9.886719 -15.269531 7.761719 -17.160156 5.320312 -17.160156 C 2.878906 -17.160156 0.769531 -15.269531 0.769531 -12.925781 L 0.769531 -0.476562 C 0.769531 -0.21875 0.902344 0 1.085938 0 L 3.660156 0 C 3.953125 0 4.027344 -0.207031 4.027344 -0.476562 L 4.027344 -4.027344 L 6.628906 -4.027344 L 6.628906 -0.488281 C 6.628906 -0.230469 6.773438 0 7.019531 0 L 9.496094 0 C 9.777344 0 9.886719 -0.242188 9.886719 -0.488281 Z M 9.886719 -12.925781 "/></g></g></g><g fill="#000000" fill-opacity="1"><g transform="translate(135.387158, 270.9826)"><g><path d="M 12.5 -0.488281 C 12.5 -0.230469 12.632812 0 12.890625 0 L 15.367188 0 C 15.636719 0 15.746094 -0.242188 15.746094 -0.488281 L 15.746094 -12.925781 C 15.746094 -15.269531 13.621094 -17.160156 11.179688 -17.160156 C 10.082031 -17.160156 9.042969 -16.78125 8.25 -16.148438 C 7.445312 -16.78125 6.40625 -17.160156 5.320312 -17.160156 C 2.878906 -17.160156 0.769531 -15.269531 0.769531 -12.925781 L 0.769531 -0.476562 C 0.769531 -0.21875 0.914062 0 1.085938 0 L 3.660156 0 C 3.953125 0 4.027344 -0.207031 4.027344 -0.476562 L 4.027344 -12.742188 C 4.027344 -13.511719 4.503906 -14.207031 5.332031 -14.207031 C 6.152344 -14.207031 6.628906 -13.511719 6.628906 -12.742188 L 6.628906 -0.476562 C 6.628906 -0.21875 6.785156 0 6.957031 0 L 9.53125 0 C 9.824219 0 9.886719 -0.207031 9.886719 -0.464844 L 9.886719 -12.792969 C 9.910156 -13.535156 10.386719 -14.207031 11.191406 -14.207031 C 12.011719 -14.207031 12.5 -13.511719 12.5 -12.742188 Z M 12.5 -0.488281 "/></g></g></g><g fill="#000000" fill-opacity="1"><g transform="translate(155.475746, 270.9826)"><g><path d="M 4.125 -16.417969 C 4.125 -16.710938 4.003906 -16.894531 3.722656 -16.894531 L 1.28125 -16.894531 C 1.023438 -16.894531 0.878906 -16.710938 0.878906 -16.417969 L 0.878906 -0.464844 C 0.878906 -0.171875 1 0 1.28125 0 L 3.722656 0 C 4.003906 0 4.125 -0.171875 4.125 -0.464844 Z M 4.125 -16.417969 "/></g></g></g><g fill="#000000" fill-opacity="1"><g transform="translate(164.067106, 270.9826)"><g><path d="M 9.496094 0 C 9.765625 0 9.886719 -0.242188 9.886719 -0.488281 L 9.886719 -12.925781 C 9.886719 -15.269531 7.761719 -17.160156 5.320312 -17.160156 C 2.878906 -17.160156 0.769531 -15.269531 0.769531 -12.925781 L 0.769531 -0.476562 C 0.769531 -0.21875 0.902344 0 1.085938 0 L 3.660156 0 C 3.941406 0 4.027344 -0.207031 4.027344 -0.476562 L 4.027344 -12.742188 C 4.027344 -13.511719 4.503906 -14.207031 5.332031 -14.207031 C 6.152344 -14.207031 6.628906 -13.511719 6.628906 -12.742188 L 6.628906 -0.488281 C 6.628906 -0.230469 6.773438 0 7.019531 0 Z M 9.496094 0 "/></g></g></g><g fill="#000000" fill-opacity="1"><g transform="translate(178.297232, 270.9826)"><g><path d="M 6.503906 -4.066406 C 6.503906 -3.296875 5.933594 -2.671875 5.152344 -2.671875 C 4.429688 -2.671875 3.855469 -3.257812 3.855469 -4.125 L 3.855469 -12.804688 C 3.855469 -13.585938 4.359375 -14.21875 5.136719 -14.21875 C 5.96875 -14.21875 6.445312 -13.5 6.445312 -12.765625 L 6.445312 -11.691406 C 6.445312 -11.363281 6.519531 -11.230469 6.796875 -11.230469 L 9.105469 -11.230469 C 9.386719 -11.230469 9.484375 -11.375 9.484375 -11.742188 L 9.484375 -12.851562 C 9.484375 -14.402344 8.59375 -17.148438 5.164062 -17.148438 C 2.710938 -17.148438 0.609375 -15.5625 0.609375 -12.914062 L 0.609375 -3.96875 C 0.609375 -1.269531 2.746094 0.269531 5.152344 0.269531 C 7.605469 0.269531 9.558594 -1.316406 9.558594 -3.96875 L 9.558594 -8.667969 C 9.558594 -8.960938 9.410156 -9.128906 9.117188 -9.128906 L 5.601562 -9.128906 C 5.359375 -9.128906 5.234375 -8.984375 5.234375 -8.703125 L 5.234375 -6.847656 C 5.234375 -6.554688 5.359375 -6.433594 5.601562 -6.433594 L 6.503906 -6.433594 Z M 6.503906 -4.066406 "/></g></g></g><g fill="#000000" fill-opacity="1"><g transform="translate(191.990333, 270.9826)"><g/></g></g><g fill="#000000" fill-opacity="1"><g transform="translate(201.228558, 270.9826)"><g><path d="M 6.140625 -12 C 6.140625 -11.65625 6.1875 -11.535156 6.492188 -11.535156 L 8.679688 -11.535156 C 9.070312 -11.535156 9.15625 -11.65625 9.15625 -12 L 9.15625 -12.695312 C 9.15625 -15.390625 7.347656 -17.148438 4.820312 -17.148438 C 3.113281 -17.148438 0.488281 -15.941406 0.488281 -12.765625 C 0.488281 -9.972656 1.636719 -9.167969 4.1875 -7.089844 C 5.6875 -5.871094 6.324219 -5.320312 6.324219 -4.136719 C 6.324219 -3.246094 5.699219 -2.683594 4.929688 -2.683594 C 4.308594 -2.683594 3.539062 -3.074219 3.539062 -4.296875 L 3.539062 -4.847656 C 3.539062 -5.210938 3.464844 -5.347656 3.125 -5.347656 L 0.902344 -5.347656 C 0.5625 -5.347656 0.488281 -5.175781 0.488281 -4.761719 L 0.488281 -4.113281 C 0.488281 -1.820312 1.964844 0.269531 4.90625 0.269531 C 7.605469 0.269531 9.410156 -1.683594 9.410156 -3.96875 C 9.410156 -7.054688 7.59375 -8.386719 5.308594 -10.15625 C 4.222656 -10.996094 3.503906 -11.523438 3.503906 -12.683594 C 3.503906 -13.792969 4.210938 -14.21875 4.820312 -14.21875 C 5.699219 -14.21875 6.140625 -13.523438 6.140625 -12.683594 Z M 6.140625 -12 "/></g></g></g><g fill="#000000" fill-opacity="1"><g transform="translate(214.567711, 270.9826)"><g><path d="M 3.855469 -12.730469 C 3.855469 -13.511719 4.34375 -14.21875 5.175781 -14.21875 C 5.992188 -14.21875 6.480469 -13.511719 6.480469 -12.730469 L 6.480469 -4.066406 C 6.480469 -3.296875 5.992188 -2.671875 5.152344 -2.671875 C 4.320312 -2.671875 3.855469 -3.367188 3.855469 -4.136719 Z M 9.265625 2.183594 C 9.265625 2 9.128906 1.941406 8.996094 1.941406 L 7.996094 1.941406 C 6.980469 1.941406 6.359375 1.195312 6.359375 0.316406 L 6.359375 0.132812 C 8.261719 -0.292969 9.726562 -1.757812 9.726562 -3.96875 L 9.726562 -12.914062 C 9.726562 -15.574219 7.605469 -17.148438 5.152344 -17.148438 C 2.710938 -17.148438 0.609375 -15.5625 0.609375 -12.914062 L 0.609375 -3.96875 C 0.609375 -1.917969 1.929688 -0.453125 3.6875 0.0625 C 3.722656 2.503906 5.492188 4.210938 8.066406 4.210938 L 8.996094 4.210938 C 9.117188 4.210938 9.265625 4.175781 9.265625 3.953125 Z M 9.265625 2.183594 "/></g></g></g><g fill="#000000" fill-opacity="1"><g transform="translate(228.48051, 270.9826)"><g><path d="M 6.628906 -4.148438 C 6.628906 -3.382812 6.152344 -2.671875 5.332031 -2.671875 C 4.503906 -2.671875 4.027344 -3.382812 4.027344 -4.148438 L 4.027344 -16.417969 C 4.027344 -16.671875 3.953125 -16.894531 3.660156 -16.894531 L 1.085938 -16.894531 C 0.914062 -16.894531 0.769531 -16.671875 0.769531 -16.417969 L 0.769531 -3.96875 C 0.769531 -1.625 2.878906 0.269531 5.320312 0.269531 C 7.761719 0.269531 9.886719 -1.625 9.886719 -3.96875 L 9.886719 -16.40625 C 9.886719 -16.648438 9.765625 -16.894531 9.496094 -16.894531 L 7.019531 -16.894531 C 6.761719 -16.894531 6.628906 -16.660156 6.628906 -16.40625 Z M 6.628906 -4.148438 "/></g></g></g><g fill="#000000" fill-opacity="1"><g transform="translate(242.710642, 270.9826)"><g><path d="M 4.027344 -12.742188 C 4.027344 -13.511719 4.503906 -14.207031 5.332031 -14.207031 C 6.152344 -14.207031 6.628906 -13.511719 6.628906 -12.742188 L 6.628906 -6.871094 L 4.027344 -6.871094 Z M 9.886719 -12.925781 C 9.886719 -15.269531 7.761719 -17.160156 5.320312 -17.160156 C 2.878906 -17.160156 0.769531 -15.269531 0.769531 -12.925781 L 0.769531 -0.476562 C 0.769531 -0.21875 0.902344 0 1.085938 0 L 3.660156 0 C 3.953125 0 4.027344 -0.207031 4.027344 -0.476562 L 4.027344 -4.027344 L 6.628906 -4.027344 L 6.628906 -0.488281 C 6.628906 -0.230469 6.773438 0 7.019531 0 L 9.496094 0 C 9.777344 0 9.886719 -0.242188 9.886719 -0.488281 Z M 9.886719 -12.925781 "/></g></g></g><g fill="#000000" fill-opacity="1"><g transform="translate(256.940775, 270.9826)"><g><path d="M 4.125 -13.925781 L 5.332031 -13.925781 C 6.164062 -13.925781 6.738281 -13.449219 6.738281 -12.425781 L 6.738281 -4.429688 C 6.738281 -3.601562 6.210938 -2.964844 5.394531 -2.941406 L 4.125 -2.941406 Z M 0.878906 -0.464844 C 0.878906 -0.171875 1.011719 0 1.292969 0 L 5.554688 0 C 8.042969 -0.0234375 9.984375 -1.527344 9.984375 -4.332031 L 9.984375 -12.558594 C 9.984375 -15.355469 8.054688 -16.867188 5.527344 -16.894531 L 1.292969 -16.894531 C 1.039062 -16.894531 0.878906 -16.710938 0.878906 -16.417969 Z M 0.878906 -0.464844 "/></g></g></g></svg>